<?xml version="1.0" standalone="no"?>
<!DOCTYPE svg PUBLIC "-//W3C//DTD SVG 20010904//EN"
 "http://www.w3.org/TR/2001/REC-SVG-20010904/DTD/svg10.dtd">
<svg version="1.0" xmlns="http://www.w3.org/2000/svg"
 viewBox="0 0 512.000000 512.000000"
 preserveAspectRatio="xMidYMid meet">

<g transform="translate(0.000000,512.000000) scale(0.100000,-0.100000)">
<path d="M2399 5105 c-111 -21 -235 -69 -330 -127 -92 -57 -227 -184 -273
-259 l-29 -46 -71 25 c-93 32 -229 34 -327 3 -153 -48 -296 -186 -344 -332
-13 -39 -24 -53 -63 -75 -206 -119 -356 -317 -408 -536 l-19 -78 -61 -20
c-274 -92 -474 -375 -474 -671 0 -152 74 -347 171 -453 l52 -57 -16 -42 c-72
-190 -63 -430 22 -614 87 -186 250 -338 437 -409 77 -29 195 -53 266 -54 44 0
48 -3 82 -49 109 -148 305 -229 488 -202 106 16 219 74 296 152 55 56 62 60
80 48 10 -8 92 -72 182 -144 l162 -130 -5 -151 c-11 -277 -74 -491 -205 -694
-48 -74 -49 -121 -4 -161 68 -61 121 -34 202 103 143 243 210 510 210 842 0
96 -4 128 -18 153 -10 20 -132 125 -317 274 -352 283 -348 280 -390 344 -60
94 -65 123 -65 394 l0 246 37 -64 c21 -36 66 -89 100 -120 l63 -56 0 -116 c0
-166 0 -166 248 -366 228 -183 242 -190 304 -134 l33 29 3 299 c3 268 5 299
20 308 9 5 72 10 139 10 l121 0 4 -77 c3 -64 7 -81 27 -102 29 -31 80 -43 112
-25 13 6 50 32 81 57 50 39 62 44 91 38 46 -9 163 9 232 35 31 12 86 41 122
66 l65 44 -28 -36 c-15 -21 -176 -156 -356 -302 -285 -231 -329 -270 -339
-302 -18 -59 -6 -833 15 -936 37 -194 98 -355 192 -512 75 -127 130 -153 196
-94 45 40 44 87 -4 161 -84 129 -144 277 -179 438 -18 82 -22 142 -26 395 l-5
299 48 -9 c67 -11 231 -8 278 5 36 10 40 10 60 -16 74 -96 211 -174 333 -193
177 -26 362 47 476 187 l48 59 77 7 c187 18 257 52 257 130 0 33 -6 45 -33 69
-37 33 -50 35 -151 14 -44 -10 -110 -15 -162 -13 -100 3 -115 -4 -154 -82 -29
-57 -102 -125 -163 -152 -60 -27 -159 -29 -229 -5 -63 22 -134 83 -170 145
-49 88 -84 99 -188 60 -46 -17 -83 -22 -155 -22 -165 -1 -169 -9 148 247 154
125 301 250 327 279 64 73 122 196 137 291 l13 77 80 0 c151 0 269 47 376 148
82 76 143 187 161 292 10 58 18 73 74 139 104 124 182 293 199 434 l7 57 62
-33 c197 -104 306 -349 251 -561 -26 -100 -65 -166 -142 -243 -107 -107 -108
-112 -64 -206 36 -78 61 -161 61 -204 0 -112 103 -167 176 -94 25 25 26 30 21
106 -3 45 -17 116 -32 163 l-26 83 51 56 c96 105 170 301 170 452 0 297 -200
579 -476 671 -48 16 -64 26 -64 40 0 36 -52 185 -87 249 -64 119 -151 217
-264 299 -46 33 -57 47 -62 76 -16 99 -118 242 -223 311 -157 104 -372 118
-536 34 l-37 -19 -42 62 c-123 182 -329 326 -541 378 -110 28 -288 34 -389 15z
m366 -215 c202 -63 350 -187 446 -374 52 -100 63 -114 104 -122 37 -7 64 5
115 49 91 80 225 102 343 57 79 -30 157 -108 186 -185 12 -30 21 -65 21 -76 0
-51 28 -86 113 -143 47 -31 105 -79 129 -106 165 -189 215 -438 134 -671 -31
-89 -74 -157 -158 -246 -69 -73 -73 -81 -82 -171 -11 -111 -90 -223 -192 -273
-63 -30 -174 -37 -240 -15 -27 9 -75 34 -108 56 -70 48 -104 51 -146 12 -27
-23 -32 -37 -40 -100 -12 -93 -37 -149 -94 -210 -65 -69 -148 -106 -241 -105
-86 1 -142 21 -214 76 -55 41 -57 42 -121 38 -86 -6 -180 -6 -261 0 -64 4 -69
2 -108 -29 -103 -83 -224 -106 -341 -67 -109 37 -220 183 -220 291 0 40 -20
93 -43 112 -8 7 -30 15 -49 18 -27 5 -43 -1 -88 -32 -77 -53 -138 -74 -215
-74 -169 0 -307 121 -335 295 -9 58 -12 62 -98 142 -49 45 -108 111 -131 147
-82 125 -119 287 -101 434 30 232 160 416 370 522 70 36 86 54 100 115 24 109
95 196 198 242 43 20 71 26 131 26 82 0 123 -13 202 -63 81 -53 130 -35 183
68 106 200 299 341 524 382 78 15 248 4 327 -20z m-2199 -1613 c42 -132 160
-310 253 -385 29 -23 43 -44 51 -75 60 -237 243 -395 480 -416 l75 -6 6 -280
c3 -185 10 -294 18 -320 30 -94 85 -180 168 -264 l84 -84 -54 -52 c-65 -63
-132 -89 -227 -88 -114 0 -221 68 -275 173 -40 78 -54 85 -154 82 -181 -6
-335 52 -457 173 -118 118 -175 253 -175 422 -1 101 15 170 62 270 44 94 43
99 -64 206 -78 77 -116 143 -142 242 -55 214 53 457 250 562 l60 32 12 -70 c7
-39 19 -94 29 -122z m1654 -1339 l0 -129 -27 20 c-16 10 -58 45 -95 75 l-68
56 0 54 0 53 95 0 95 0 0 -129z"/>
<path d="M4679 1832 c-28 -25 -34 -37 -34 -70 0 -71 77 -122 136 -92 92 47 73
173 -27 187 -36 5 -46 1 -75 -25z"/>
</g>
</svg>
